<?xml version="1.0" encoding="UTF-8" standalone="no"?>
<!-- Created with Inkscape (http://www.inkscape.org/) -->

<svg
   version="1.1"
   id="svg1"
   width="508.18665"
   height="184.29478"
   viewBox="0 0 508.18665 184.29478"
   sodipodi:docname="body_muscles.eps"
   inkscape:export-filename="../4af4f3ac/body.svg"
   inkscape:export-xdpi="96"
   inkscape:export-ydpi="96"
   inkscape:export-batch-path="../9c303ffd/woman"
   inkscape:export-batch-name="woman_front"
   xml:space="preserve"
   inkscape:version="1.4.2 (2aeb623e1d, 2025-05-12)"
   inkscape:dataloss="true"
   xmlns:inkscape="http://www.inkscape.org/namespaces/inkscape"
   xmlns:sodipodi="http://sodipodi.sourceforge.net/DTD/sodipodi-0.dtd"
   xmlns:xlink="http://www.w3.org/1999/xlink"
   xmlns="http://www.w3.org/2000/svg"
   xmlns:svg="http://www.w3.org/2000/svg"><defs
     id="defs1"><radialGradient
       fx="0"
       fy="0"
       cx="0"
       cy="0"
       r="1"
       gradientUnits="userSpaceOnUse"
       gradientTransform="matrix(530.064,0,0,-530.064,32370.2,32769.5)"
       spreadMethod="pad"
       id="radialGradient5615-1"><stop
         style="stop-opacity:1;stop-color:#e2a4a1"
         offset="0"
         id="stop5612-0" /><stop
         style="stop-opacity:1;stop-color:#e2a4a1"
         offset="0.011236"
         id="stop5613-2" /><stop
         style="stop-opacity:1;stop-color:#dc8e8f"
         offset="0.5"
         id="stop5614-1" /><stop
         style="stop-opacity:1;stop-color:#b6726b"
         offset="1"
         id="stop5615-5" /></radialGradient><clipPath
       clipPathUnits="userSpaceOnUse"
       id="clipPath5615-6"><path
         d="m 32412.3,32720.7 256.9,-617.6 c -18.1,-5.9 -49.8,-15.3 -87.2,-21 l -510.7,1098.7 c 4.5,13 14.1,41.7 23.7,79.7 13.6,53.2 27.6,124.7 28.3,196.5 77.2,-115.9 259.8,-418.9 288.8,-733.5 z"
         transform="translate(0,-2.5e-4)"
         id="path5615-3-9" /></clipPath><radialGradient
       fx="0"
       fy="0"
       cx="0"
       cy="0"
       r="1"
       gradientUnits="userSpaceOnUse"
       gradientTransform="matrix(496.51,0,0,-496.51,32183.4,32679.8)"
       spreadMethod="pad"
       id="radialGradient5621-0"><stop
         style="stop-opacity:1;stop-color:#e2a4a1"
         offset="0"
         id="stop5618-7" /><stop
         style="stop-opacity:1;stop-color:#e2a4a1"
         offset="0.011236"
         id="stop5619-0" /><stop
         style="stop-opacity:1;stop-color:#dc8e8f"
         offset="0.5"
         id="stop5620-5-1" /><stop
         style="stop-opacity:1;stop-color:#b6726b"
         offset="1"
         id="stop5621-5-6" /></radialGradient><clipPath
       clipPathUnits="userSpaceOnUse"
       id="clipPath5621-6"><path
         d="m 32037.3,33164.2 505.1,-1086.8 c -33.6,-2.5 -69.5,-0.8 -102.5,8.7 l -333.2,590 c -2.6,3.8 -251.6,368.6 -282.3,607.2 81.3,-74.2 182.9,-109.7 212.9,-119.1 z"
         transform="translate(0,-2.5e-4)"
         id="path5621-4" /></clipPath><radialGradient
       fx="0"
       fy="0"
       cx="0"
       cy="0"
       r="1"
       gradientUnits="userSpaceOnUse"
       gradientTransform="matrix(497.698,0,0,-497.698,29343.1,32679.4)"
       spreadMethod="pad"
       id="radialGradient6149-9"><stop
         style="stop-opacity:1;stop-color:#e2a4a1"
         offset="0"
         id="stop6146-2" /><stop
         style="stop-opacity:1;stop-color:#e2a4a1"
         offset="0.011236"
         id="stop6147-0-9" /><stop
         style="stop-opacity:1;stop-color:#dc8e8f"
         offset="0.5"
         id="stop6148-9-5" /><stop
         style="stop-opacity:1;stop-color:#b6726b"
         offset="1"
         id="stop6149-7-3" /></radialGradient><clipPath
       clipPathUnits="userSpaceOnUse"
       id="clipPath6149-7"><path
         d="m 29488,33162.5 c 30.4,9.6 133.7,45.9 215.4,121.6 -30.2,-238.6 -279.7,-604.2 -283.1,-609.3 l -333.2,-589.9 c -33.6,-9.8 -70,-11.5 -104.3,-9.2 z"
         transform="translate(0,-2.5e-4)"
         id="path6149-4" /></clipPath><radialGradient
       fx="0"
       fy="0"
       cx="0"
       cy="0"
       r="1"
       gradientUnits="userSpaceOnUse"
       gradientTransform="matrix(529.09,0,0,-529.09,29155.9,32766.7)"
       spreadMethod="pad"
       id="radialGradient6161-7"><stop
         style="stop-opacity:1;stop-color:#e2a4a1"
         offset="0"
         id="stop6158-6-3" /><stop
         style="stop-opacity:1;stop-color:#e2a4a1"
         offset="0.011236"
         id="stop6159-4" /><stop
         style="stop-opacity:1;stop-color:#dc8e8f"
         offset="0.5"
         id="stop6160-9" /><stop
         style="stop-opacity:1;stop-color:#b6726b"
         offset="1"
         id="stop6161-1" /></radialGradient><clipPath
       clipPathUnits="userSpaceOnUse"
       id="clipPath6161-6"><path
         d="m 29454.1,33179.3 -510.8,-1098.9 c -36,5.7 -67,14.7 -85.5,20.8 l 256.5,616.8 1.5,5.5 c 28.7,310.9 207.5,610.8 286.4,729.5 0.9,-71 14.7,-141.6 28.1,-194.2 9.6,-37.8 19.2,-66.5 23.8,-79.5 z"
         transform="translate(0,-2.5e-4)"
         id="path6161-0-5" /></clipPath><radialGradient
       inkscape:collect="always"
       xlink:href="#radialGradient5621-0"
       id="radialGradient9547"
       gradientUnits="userSpaceOnUse"
       gradientTransform="matrix(496.51,0,0,-496.51,32183.4,32679.8)"
       cx="0"
       cy="0"
       fx="0"
       fy="0"
       r="1"
       spreadMethod="pad" /><radialGradient
       inkscape:collect="always"
       xlink:href="#radialGradient5615-1"
       id="radialGradient9599"
       gradientUnits="userSpaceOnUse"
       gradientTransform="matrix(530.064,0,0,-530.064,32370.2,32769.5)"
       cx="0"
       cy="0"
       fx="0"
       fy="0"
       r="1"
       spreadMethod="pad" /><radialGradient
       inkscape:collect="always"
       xlink:href="#radialGradient6149-9"
       id="radialGradient9600"
       gradientUnits="userSpaceOnUse"
       gradientTransform="matrix(497.698,0,0,-497.698,29343.1,32679.4)"
       cx="0"
       cy="0"
       fx="0"
       fy="0"
       r="1"
       spreadMethod="pad" /><radialGradient
       inkscape:collect="always"
       xlink:href="#radialGradient6161-7"
       id="radialGradient9601"
       gradientUnits="userSpaceOnUse"
       gradientTransform="matrix(529.09,0,0,-529.09,29155.9,32766.7)"
       cx="0"
       cy="0"
       fx="0"
       fy="0"
       r="1"
       spreadMethod="pad" /></defs><sodipodi:namedview
     id="namedview1"
     pagecolor="#505050"
     bordercolor="#eeeeee"
     borderopacity="1"
     inkscape:showpageshadow="0"
     inkscape:pageopacity="0"
     inkscape:pagecheckerboard="0"
     inkscape:deskcolor="#505050"
     inkscape:zoom="0.87224997"
     inkscape:cx="10302.093"
     inkscape:cy="2463.17"
     inkscape:window-width="3440"
     inkscape:window-height="1371"
     inkscape:window-x="0"
     inkscape:window-y="0"
     inkscape:window-maximized="1"
     inkscape:current-layer="layer2"
     showgrid="false"><inkscape:grid
       id="grid9149"
       units="px"
       originx="-11966.24"
       originy="-796.75773"
       spacingx="1"
       spacingy="1"
       empcolor="#0099e5"
       empopacity="0.30196078"
       color="#0099e5"
       opacity="0.14901961"
       empspacing="5"
       enabled="true"
       visible="false" /></sodipodi:namedview><g
     inkscape:groupmode="layer"
     id="layer7"
     inkscape:label="woman-front"
     style="display:inline"
     transform="translate(-11966.24,-796.75775)"><g
       id="g9538"
       transform="translate(1512.0822,5859.8415)"
       style="display:inline"
       inkscape:label="forearm"><path
         id="path9535"
         d="m 32412.3,32720.7 256.9,-617.6 c -18.1,-5.9 -49.8,-15.3 -87.2,-21 l -510.7,1098.7 c 4.5,13 14.1,41.7 23.7,79.7 13.6,53.2 27.6,124.7 28.3,196.5 77.2,-115.9 259.8,-418.9 288.8,-733.5 l 0.2,-2.8"
         style="fill:url(#radialGradient9599);fill-opacity:1;fill-rule:nonzero;stroke:none"
         transform="matrix(0.13333333,0,0,-0.13333333,6606.4516,-602.15056)"
         clip-path="url(#clipPath5615-6)" /><path
         id="path9537"
         d="m 29488,33162.5 c 30.4,9.6 133.7,45.9 215.4,121.6 -30.2,-238.6 -279.7,-604.2 -283.1,-609.3 l -333.2,-589.9 c -33.6,-9.8 -70,-11.5 -104.3,-9.2 l 505.2,1086.8"
         style="fill:url(#radialGradient9600);fill-opacity:1;fill-rule:nonzero;stroke:none"
         transform="matrix(0.13333333,0,0,-0.13333333,6606.4516,-602.15056)"
         clip-path="url(#clipPath6149-7)" /><path
         id="path9538"
         d="m 29454.1,33179.3 -510.8,-1098.9 c -36,5.7 -67,14.7 -85.5,20.8 l 256.5,616.8 1.5,5.5 c 28.7,310.9 207.5,610.8 286.4,729.5 0.9,-71 14.7,-141.6 28.1,-194.2 9.6,-37.8 19.2,-66.5 23.8,-79.5"
         style="fill:url(#radialGradient9601);fill-opacity:1;fill-rule:nonzero;stroke:none"
         transform="matrix(0.13333333,0,0,-0.13333333,6606.4516,-602.15056)"
         clip-path="url(#clipPath6161-6)" /><path
         id="path9156"
         d="m 32037.3,33164.2 505.1,-1086.8 c -33.6,-2.5 -69.5,-0.8 -102.5,8.7 l -333.2,590 c -2.6,3.8 -251.6,368.6 -282.3,607.2 81.3,-74.2 182.9,-109.7 212.9,-119.1"
         style="display:inline;fill:url(#radialGradient9547);fill-opacity:1;fill-rule:nonzero;stroke:none"
         transform="matrix(0.13333333,0,0,-0.13333333,6606.4516,-602.1506)"
         clip-path="url(#clipPath5621-6)" /></g></g></svg>
