<?xml version="1.0" encoding="UTF-8" standalone="no"?>
<!-- Created with Inkscape (http://www.inkscape.org/) -->

<svg
   version="1.1"
   id="svg1"
   width="206.21333"
   height="152.76959"
   viewBox="0 0 206.21333 152.76959"
   sodipodi:docname="body_muscles.eps"
   inkscape:export-filename="../4af4f3ac/body.svg"
   inkscape:export-xdpi="96"
   inkscape:export-ydpi="96"
   inkscape:export-batch-path="../9c303ffd/woman"
   inkscape:export-batch-name="woman_front"
   xml:space="preserve"
   inkscape:version="1.4.2 (2aeb623e1d, 2025-05-12)"
   inkscape:dataloss="true"
   xmlns:inkscape="http://www.inkscape.org/namespaces/inkscape"
   xmlns:sodipodi="http://sodipodi.sourceforge.net/DTD/sodipodi-0.dtd"
   xmlns="http://www.w3.org/2000/svg"
   xmlns:svg="http://www.w3.org/2000/svg"><defs
     id="defs1"><radialGradient
       fx="0"
       fy="0"
       cx="0"
       cy="0"
       r="1"
       gradientUnits="userSpaceOnUse"
       gradientTransform="matrix(482.123,0,0,-482.123,24877.7,34328.8)"
       spreadMethod="pad"
       id="radialGradient5188-6-1"><stop
         style="stop-opacity:1;stop-color:#e2a4a1"
         offset="0"
         id="stop5185-3-9" /><stop
         style="stop-opacity:1;stop-color:#e2a4a1"
         offset="0.011236"
         id="stop5186-8-9" /><stop
         style="stop-opacity:1;stop-color:#dc8e8f"
         offset="0.5"
         id="stop5187-8-3" /><stop
         style="stop-opacity:1;stop-color:#b6726b"
         offset="1"
         id="stop5188-6-1" /></radialGradient><clipPath
       clipPathUnits="userSpaceOnUse"
       id="clipPath5188-6-9"><path
         d="m 25233.3,34235.4 c 8,-99.1 12.1,-188.2 -2.2,-264.3 -3.8,-20.9 -9.1,-40.8 -16.1,-59.5 h -0.5 c 0,-0.1 -0.2,-0.9 -0.4,-2.2 0,0 0,-0.2 0,-0.4 -16.8,-43.8 -42.8,-81.7 -82.5,-112.9 -2.6,-2.2 -5.5,-4.5 -8.5,-6.6 -64.9,-47.5 -156.3,-32.1 -231.4,-4.7 -74.4,27 -132.9,65.7 -134,66.6 l -2.5,1.4 c -2,1.1 -199.8,94.5 -251.2,214.9 l -0.7,377.5 0.7,378.1 c 18,23.2 83.3,89.3 233.1,72.7 l 332.6,-15.5 c -8.5,-8.3 -15.1,-16.6 -19.6,-24.5 -1.2,-0.6 -2.1,-1.2 -3.2,-1.7 l 1.3,-2.3 c -2.3,-4.2 -3.8,-8.1 -4.7,-12.1 -3.6,-14 -0.2,-24 2.8,-29.8 26.6,-115.1 109.5,-234.2 205.7,-340.3 -11.7,-33.2 -28.8,-106.3 -18.7,-234.4 z"
         transform="translate(0,-2.5e-4)"
         id="path5188-8-2" /></clipPath><radialGradient
       fx="0"
       fy="0"
       cx="0"
       cy="0"
       r="1"
       gradientUnits="userSpaceOnUse"
       gradientTransform="matrix(480.395,0,0,-480.395,24076,34328.4)"
       spreadMethod="pad"
       id="radialGradient5363-8"><stop
         style="stop-opacity:1;stop-color:#e2a4a1"
         offset="0"
         id="stop5360-6-9" /><stop
         style="stop-opacity:1;stop-color:#e2a4a1"
         offset="0.011236"
         id="stop5361-0" /><stop
         style="stop-opacity:1;stop-color:#dc8e8f"
         offset="0.5"
         id="stop5362-7" /><stop
         style="stop-opacity:1;stop-color:#b6726b"
         offset="1"
         id="stop5363-6" /></radialGradient><clipPath
       clipPathUnits="userSpaceOnUse"
       id="clipPath5363-8"><path
         d="m 24445.9,34822.6 0.7,-377.2 -0.7,-381.2 c -53.2,-118.8 -245,-210.5 -247.3,-211.4 l -2.4,-1.4 c -1.2,-0.7 -68.3,-45.3 -150.5,-72.3 -71.7,-23.5 -154.5,-33.5 -214.8,10.6 -7.9,5.9 -15.2,11.9 -22.2,18.1 -32.1,28.9 -54,63.1 -68.7,101.6 -8.5,22.3 -14.6,45.9 -18.7,71 -12.5,74 -8.1,159.8 -0.6,255 10,128.3 -4.9,200 -15.3,232.3 97,106.7 180.9,226.7 207.7,342.4 3,5.8 6.2,15.8 2.8,29.8 -3.2,13 -11.9,26.6 -26.1,40.2 l 324.9,15.1 c 148.5,16.4 213.4,-49.6 231.2,-72.6 z"
         transform="translate(0,-2.5e-4)"
         id="path5363-9-8" /></clipPath></defs><sodipodi:namedview
     id="namedview1"
     pagecolor="#505050"
     bordercolor="#eeeeee"
     borderopacity="1"
     inkscape:showpageshadow="0"
     inkscape:pageopacity="0"
     inkscape:pagecheckerboard="0"
     inkscape:deskcolor="#505050"
     inkscape:zoom="0.87224997"
     inkscape:cx="10302.093"
     inkscape:cy="2463.17"
     inkscape:window-width="3440"
     inkscape:window-height="1371"
     inkscape:window-x="0"
     inkscape:window-y="0"
     inkscape:window-maximized="1"
     inkscape:current-layer="layer2"
     showgrid="false"><inkscape:grid
       id="grid9149"
       units="px"
       originx="-12117.373"
       originy="-604.23723"
       spacingx="1"
       spacingy="1"
       empcolor="#0099e5"
       empopacity="0.30196078"
       color="#0099e5"
       opacity="0.14901961"
       empspacing="5"
       enabled="true"
       visible="false" /></sodipodi:namedview><g
     inkscape:groupmode="layer"
     id="layer7"
     inkscape:label="woman-front"
     style="display:inline"
     transform="translate(-12117.373,-604.23724)"><g
       id="g9610-2"
       style="display:inline"
       transform="translate(1857.6207,5734.7617)"
       inkscape:label="chest"><path
         id="path5185-0-9"
         d="m 25233.3,34235.4 c 8,-99.1 12.1,-188.2 -2.2,-264.3 -3.8,-20.9 -9.1,-40.8 -16.1,-59.5 h -0.5 c 0,-0.1 -0.2,-0.9 -0.4,-2.2 0,0 0,-0.2 0,-0.4 -16.8,-43.8 -42.8,-81.7 -82.5,-112.9 -2.6,-2.2 -5.5,-4.5 -8.5,-6.6 -64.9,-47.5 -156.3,-32.1 -231.4,-4.7 -74.4,27 -132.9,65.7 -134,66.6 l -2.5,1.4 c -2,1.1 -199.8,94.5 -251.2,214.9 l -0.7,377.5 0.7,378.1 c 18,23.2 83.3,89.3 233.1,72.7 l 332.6,-15.5 c -8.5,-8.3 -15.1,-16.6 -19.6,-24.5 -1.2,-0.6 -2.1,-1.2 -3.2,-1.7 l 1.3,-2.3 c -2.3,-4.2 -3.8,-8.1 -4.7,-12.1 -3.6,-14 -0.2,-24 2.8,-29.8 26.6,-115.1 109.5,-234.2 205.7,-340.3 -11.7,-33.2 -28.8,-106.3 -18.7,-234.4"
         style="fill:url(#radialGradient5188-6-1);fill-opacity:1;fill-rule:nonzero;stroke:none"
         transform="matrix(0.13333333,0,0,-0.13333333,7099.0325,-476.56545)"
         clip-path="url(#clipPath5188-6-9)" /><path
         id="path5360-1-7"
         d="m 24445.9,34822.6 0.7,-377.2 -0.7,-381.2 c -53.2,-118.8 -245,-210.5 -247.3,-211.4 l -2.4,-1.4 c -1.2,-0.7 -68.3,-45.3 -150.5,-72.3 -71.7,-23.5 -154.5,-33.5 -214.8,10.6 -7.9,5.9 -15.2,11.9 -22.2,18.1 -32.1,28.9 -54,63.1 -68.7,101.6 -8.5,22.3 -14.6,45.9 -18.7,71 -12.5,74 -8.1,159.8 -0.6,255 10,128.3 -4.9,200 -15.3,232.3 97,106.7 180.9,226.7 207.7,342.4 3,5.8 6.2,15.8 2.8,29.8 -3.2,13 -11.9,26.6 -26.1,40.2 l 324.9,15.1 c 148.5,16.4 213.4,-49.6 231.2,-72.6"
         style="fill:url(#radialGradient5363-8);fill-opacity:1;fill-rule:nonzero;stroke:none"
         transform="matrix(0.13333333,0,0,-0.13333333,7099.0325,-477.48617)"
         clip-path="url(#clipPath5363-8)" /></g></g></svg>
