<?xml version="1.0" encoding="UTF-8" standalone="no"?>
<!-- Created with Inkscape (http://www.inkscape.org/) -->

<svg
   version="1.1"
   id="svg1"
   width="264.37674"
   height="277.58664"
   viewBox="0 0 264.37674 277.58664"
   sodipodi:docname="body_muscles.eps"
   inkscape:export-filename="../4af4f3ac/body.svg"
   inkscape:export-xdpi="96"
   inkscape:export-ydpi="96"
   inkscape:export-batch-path="../9c303ffd/woman"
   inkscape:export-batch-name="woman_front"
   xml:space="preserve"
   inkscape:version="1.4.2 (2aeb623e1d, 2025-05-12)"
   inkscape:dataloss="true"
   xmlns:inkscape="http://www.inkscape.org/namespaces/inkscape"
   xmlns:sodipodi="http://sodipodi.sourceforge.net/DTD/sodipodi-0.dtd"
   xmlns:xlink="http://www.w3.org/1999/xlink"
   xmlns="http://www.w3.org/2000/svg"
   xmlns:svg="http://www.w3.org/2000/svg"><defs
     id="defs1"><radialGradient
       fx="0"
       fy="0"
       cx="0"
       cy="0"
       r="1"
       gradientUnits="userSpaceOnUse"
       gradientTransform="matrix(731.79,0,0,-731.79,31585.4,28648.3)"
       spreadMethod="pad"
       id="radialGradient5679-7"><stop
         style="stop-opacity:1;stop-color:#e2a4a1"
         offset="0"
         id="stop5676-4" /><stop
         style="stop-opacity:1;stop-color:#e2a4a1"
         offset="0.011236"
         id="stop5677-5-4" /><stop
         style="stop-opacity:1;stop-color:#dc8e8f"
         offset="0.5"
         id="stop5678-3-2" /><stop
         style="stop-opacity:1;stop-color:#b6726b"
         offset="1"
         id="stop5679-5-0" /></radialGradient><clipPath
       clipPathUnits="userSpaceOnUse"
       id="clipPath5679-0"><path
         d="m 31648.5,29413.4 c 1.3,-4.1 130.8,-421.7 103,-833.1 -14,-205.6 -17.5,-321.5 -21.5,-444 -4,-122.1 -8.5,-259.7 -24,-508.8 -26.6,10.7 -68.9,23.9 -115.7,22.4 l -174.9,1656.9 c 7.3,3.2 14.9,6.8 22.2,11.1 87.6,51.3 145.2,222.3 177.4,351.3 14,-183.7 32.5,-252 33.5,-255.8 z"
         transform="translate(0,-2.5e-4)"
         id="path5679-1" /></clipPath><radialGradient
       fx="0"
       fy="0"
       cx="0"
       cy="0"
       r="1"
       gradientUnits="userSpaceOnUse"
       gradientTransform="matrix(646.756,0,0,-646.756,31345.2,28484.5)"
       spreadMethod="pad"
       id="radialGradient5736-3"><stop
         style="stop-opacity:1;stop-color:#e2a4a1"
         offset="0"
         id="stop5733-8" /><stop
         style="stop-opacity:1;stop-color:#e2a4a1"
         offset="0.011236"
         id="stop5734-8" /><stop
         style="stop-opacity:1;stop-color:#dc8e8f"
         offset="0.5"
         id="stop5735-2" /><stop
         style="stop-opacity:1;stop-color:#b6726b"
         offset="1"
         id="stop5736-9" /></radialGradient><clipPath
       clipPathUnits="userSpaceOnUse"
       id="clipPath5736-6"><path
         d="m 31378.5,29296 174.3,-1650.4 c -32.7,-7 -65.7,-22.5 -96.1,-51.9 -9.4,187.4 -99.9,534 -141.2,683.8 -7.2,26.1 -18.7,48.2 -34.2,65.3 -19,21.5 -85.6,159.7 -143.6,1032.5 42.9,-32.3 122.7,-82.5 205.9,-82.5 11.5,0 23.2,0.9 34.9,3.2 z"
         transform="translate(0,-2.5e-4)"
         id="path5736-1-0" /></clipPath><radialGradient
       fx="0"
       fy="0"
       cx="0"
       cy="0"
       r="1"
       gradientUnits="userSpaceOnUse"
       gradientTransform="matrix(644.127,0,0,-644.127,30184.6,28482.4)"
       spreadMethod="pad"
       id="radialGradient5998-1"><stop
         style="stop-opacity:1;stop-color:#e2a4a1"
         offset="0"
         id="stop5995-4" /><stop
         style="stop-opacity:1;stop-color:#e2a4a1"
         offset="0.011236"
         id="stop5996-0" /><stop
         style="stop-opacity:1;stop-color:#dc8e8f"
         offset="0.5"
         id="stop5997-5" /><stop
         style="stop-opacity:1;stop-color:#b6726b"
         offset="1"
         id="stop5998-4" /></radialGradient><clipPath
       clipPathUnits="userSpaceOnUse"
       id="clipPath5998-6"><path
         d="m 30392,29369.4 c -2.1,-11.9 -3.6,-23.9 -4.6,-36.2 -54,-786.7 -114.4,-951.9 -137.9,-986.4 -20.2,-29.6 -34.8,-60.8 -43.3,-92.1 -39.2,-144.2 -125.1,-477 -135.1,-659.3 -29.3,27.3 -61.7,42.1 -93.8,48.7 l 174.4,1652.3 c 11.1,-2.1 22.6,-3 34,-3 78.3,0 156.8,42.6 206.3,76 z"
         transform="translate(0,-2.5e-4)"
         id="path5998-9-1" /></clipPath><radialGradient
       fx="0"
       fy="0"
       cx="0"
       cy="0"
       r="1"
       gradientUnits="userSpaceOnUse"
       gradientTransform="matrix(734.555,0,0,-734.555,29943.7,28651)"
       spreadMethod="pad"
       id="radialGradient6053-9"><stop
         style="stop-opacity:1;stop-color:#e2a4a1"
         offset="0"
         id="stop6050-1" /><stop
         style="stop-opacity:1;stop-color:#e2a4a1"
         offset="0.011236"
         id="stop6051-9" /><stop
         style="stop-opacity:1;stop-color:#dc8e8f"
         offset="0.5"
         id="stop6052-1" /><stop
         style="stop-opacity:1;stop-color:#b6726b"
         offset="1"
         id="stop6053-8" /></radialGradient><clipPath
       clipPathUnits="userSpaceOnUse"
       id="clipPath6053-9"><path
         d="m 30114.9,29306.8 -175.2,-1658 c -48.9,1.9 -94.2,-11.1 -123.2,-22.5 2.6,17.8 3.2,35.5 2.2,53.1 -13,216.3 -17,338.6 -20.7,456.9 -4,122.5 -7.8,238.4 -21.5,444.2 -27.8,411.2 101.5,828.8 103,833.5 1,3.2 19.8,73.2 34,261.6 31.9,-129.5 90,-305.6 178.9,-357.7 7.4,-4.3 14.9,-8.1 22.5,-11.1 z"
         transform="translate(0,-2.5e-4)"
         id="path6053-9-2" /></clipPath><radialGradient
       inkscape:collect="always"
       xlink:href="#radialGradient5679-7"
       id="radialGradient9563"
       gradientUnits="userSpaceOnUse"
       gradientTransform="matrix(731.79,0,0,-731.79,31585.4,28648.3)"
       cx="0"
       cy="0"
       fx="0"
       fy="0"
       r="1"
       spreadMethod="pad" /><radialGradient
       inkscape:collect="always"
       xlink:href="#radialGradient5736-3"
       id="radialGradient9564"
       gradientUnits="userSpaceOnUse"
       gradientTransform="matrix(646.756,0,0,-646.756,31345.2,28484.5)"
       cx="0"
       cy="0"
       fx="0"
       fy="0"
       r="1"
       spreadMethod="pad" /><radialGradient
       inkscape:collect="always"
       xlink:href="#radialGradient5998-1"
       id="radialGradient9565"
       gradientUnits="userSpaceOnUse"
       gradientTransform="matrix(644.127,0,0,-644.127,30184.6,28482.4)"
       cx="0"
       cy="0"
       fx="0"
       fy="0"
       r="1"
       spreadMethod="pad" /><radialGradient
       inkscape:collect="always"
       xlink:href="#radialGradient6053-9"
       id="radialGradient9580"
       gradientUnits="userSpaceOnUse"
       gradientTransform="matrix(734.555,0,0,-734.555,29943.7,28651)"
       cx="0"
       cy="0"
       fx="0"
       fy="0"
       r="1"
       spreadMethod="pad" /></defs><sodipodi:namedview
     id="namedview1"
     pagecolor="#505050"
     bordercolor="#eeeeee"
     borderopacity="1"
     inkscape:showpageshadow="0"
     inkscape:pageopacity="0"
     inkscape:pagecheckerboard="0"
     inkscape:deskcolor="#505050"
     inkscape:zoom="0.87224997"
     inkscape:cx="10302.093"
     inkscape:cy="2463.17"
     inkscape:window-width="3440"
     inkscape:window-height="1371"
     inkscape:window-x="0"
     inkscape:window-y="0"
     inkscape:window-maximized="1"
     inkscape:current-layer="layer2"
     showgrid="false"><inkscape:grid
       id="grid9149"
       units="px"
       originx="-12088.212"
       originy="-1300.9444"
       spacingx="1"
       spacingy="1"
       empcolor="#0099e5"
       empopacity="0.30196078"
       color="#0099e5"
       opacity="0.14901961"
       empspacing="5"
       enabled="true"
       visible="false" /></sodipodi:namedview><g
     inkscape:groupmode="layer"
     id="layer7"
     inkscape:label="woman-front"
     style="display:inline"
     transform="translate(-12088.212,-1300.9444)"><g
       id="g9607"
       inkscape:label="lower_legs"
       style="display:inline"><path
         id="path9426"
         d="m 31648.5,29413.4 c 1.3,-4.1 130.8,-421.7 103,-833.1 -14,-205.6 -17.5,-321.5 -21.5,-444 -4,-122.1 -8.5,-259.7 -24,-508.8 -26.6,10.7 -68.9,23.9 -115.7,22.4 l -174.9,1656.9 c 7.3,3.2 14.9,6.8 22.2,11.1 87.6,51.3 145.2,222.3 177.4,351.3 14,-183.7 32.5,-252 33.5,-255.8"
         style="fill:url(#radialGradient9563);fill-opacity:1;fill-rule:nonzero;stroke:none"
         transform="matrix(0.13333333,0,0,-0.13333333,8118.5338,5257.6909)"
         clip-path="url(#clipPath5679-0)" /><path
         id="path9427"
         d="m 31378.5,29296 174.3,-1650.4 c -32.7,-7 -65.7,-22.5 -96.1,-51.9 -9.4,187.4 -99.9,534 -141.2,683.8 -7.2,26.1 -18.7,48.2 -34.2,65.3 -19,21.5 -85.6,159.7 -143.6,1032.5 42.9,-32.3 122.7,-82.5 205.9,-82.5 11.5,0 23.2,0.9 34.9,3.2"
         style="fill:url(#radialGradient9564);fill-opacity:1;fill-rule:nonzero;stroke:none"
         transform="matrix(0.13333333,0,0,-0.13333333,8118.5338,5257.6909)"
         clip-path="url(#clipPath5736-6)" /><path
         id="path9428"
         d="m 30392,29369.4 c -2.1,-11.9 -3.6,-23.9 -4.6,-36.2 -54,-786.7 -114.4,-951.9 -137.9,-986.4 -20.2,-29.6 -34.8,-60.8 -43.3,-92.1 -39.2,-144.2 -125.1,-477 -135.1,-659.3 -29.3,27.3 -61.7,42.1 -93.8,48.7 l 174.4,1652.3 c 11.1,-2.1 22.6,-3 34,-3 78.3,0 156.8,42.6 206.3,76"
         style="fill:url(#radialGradient9565);fill-opacity:1;fill-rule:nonzero;stroke:none"
         transform="matrix(0.13333333,0,0,-0.13333333,8118.5338,5257.6909)"
         clip-path="url(#clipPath5998-6)" /><path
         id="path9443"
         d="m 30114.9,29306.8 -175.2,-1658 c -48.9,1.9 -94.2,-11.1 -123.2,-22.5 2.6,17.8 3.2,35.5 2.2,53.1 -13,216.3 -17,338.6 -20.7,456.9 -4,122.5 -7.8,238.4 -21.5,444.2 -27.8,411.2 101.5,828.8 103,833.5 1,3.2 19.8,73.2 34,261.6 31.9,-129.5 90,-305.6 178.9,-357.7 7.4,-4.3 14.9,-8.1 22.5,-11.1"
         style="fill:url(#radialGradient9580);fill-opacity:1;fill-rule:nonzero;stroke:none"
         transform="matrix(0.13333333,0,0,-0.13333333,8118.5338,5257.6909)"
         clip-path="url(#clipPath6053-9)" /></g></g></svg>
