<?xml version="1.0" encoding="UTF-8" standalone="no"?>
<!-- Created with Inkscape (http://www.inkscape.org/) -->

<svg
   version="1.1"
   id="svg1"
   width="251.89333"
   height="195.6087"
   viewBox="0 0 251.89333 195.6087"
   sodipodi:docname="body_muscles.eps"
   inkscape:export-filename="../4af4f3ac/body.svg"
   inkscape:export-xdpi="96"
   inkscape:export-ydpi="96"
   inkscape:export-batch-path="../9c303ffd/woman"
   inkscape:export-batch-name="woman_back"
   xml:space="preserve"
   inkscape:version="1.4.2 (2aeb623e1d, 2025-05-12)"
   inkscape:dataloss="true"
   xmlns:inkscape="http://www.inkscape.org/namespaces/inkscape"
   xmlns:sodipodi="http://sodipodi.sourceforge.net/DTD/sodipodi-0.dtd"
   xmlns="http://www.w3.org/2000/svg"
   xmlns:svg="http://www.w3.org/2000/svg"><defs
     id="defs1"><radialGradient
       fx="0"
       fy="0"
       cx="0"
       cy="0"
       r="1"
       gradientUnits="userSpaceOnUse"
       gradientTransform="matrix(611.949,0,0,-611.949,31115.1,19952)"
       spreadMethod="pad"
       id="radialGradient8409-9"><stop
         style="stop-opacity:1;stop-color:#e2a4a1"
         offset="0"
         id="stop8406-9" /><stop
         style="stop-opacity:1;stop-color:#e2a4a1"
         offset="0.011236"
         id="stop8407-6" /><stop
         style="stop-opacity:1;stop-color:#dc8e8f"
         offset="0.5"
         id="stop8408-6" /><stop
         style="stop-opacity:1;stop-color:#b6726b"
         offset="1"
         id="stop8409-7" /></radialGradient><clipPath
       clipPathUnits="userSpaceOnUse"
       id="clipPath8409-9"><path
         d="m 30656.3,19494.3 0.2,669.2 c 164.4,278.2 313.3,412.4 431.4,473.9 47.1,24.5 89.3,37.6 125.6,43.6 114.5,19.1 194.2,-26.4 220.6,-44.5 0,-0.2 0,-0.2 0.2,-0.2 57.4,-159.5 92.3,-326.8 116.1,-541.7 8.7,-112.2 17.2,-227.5 24,-342.4 l -4.6,1.1 c -0.7,-3.4 -80.2,-290.7 -245,-435.1 -34.1,-30 -72.1,-53.8 -113.8,-67.7 -58.5,-19.5 -117.8,-30 -174.4,-31.7 -78.7,-2.5 -152.1,12.2 -211.4,43.6 -67.9,36 -117.2,92.3 -146.6,167.8 -3.4,10.3 -7,20.9 -10.8,31.5 -0.2,0.7 -0.6,1.5 -0.8,2.4 -0.3,1.6 -0.9,3.3 -1.3,4.8 h -0.4 c -3,8.5 -6,17.1 -9.4,25.4 z"
         transform="translate(0,-2.5e-4)"
         id="path8409-5-7" /></clipPath><radialGradient
       fx="0"
       fy="0"
       cx="0"
       cy="0"
       r="1"
       gradientUnits="userSpaceOnUse"
       gradientTransform="matrix(591.449,0,0,-591.449,30134.4,19947.6)"
       spreadMethod="pad"
       id="radialGradient8436-9"><stop
         style="stop-opacity:1;stop-color:#e2a4a1"
         offset="0"
         id="stop8433-2" /><stop
         style="stop-opacity:1;stop-color:#e2a4a1"
         offset="0.011236"
         id="stop8434-3" /><stop
         style="stop-opacity:1;stop-color:#dc8e8f"
         offset="0.5"
         id="stop8435-6" /><stop
         style="stop-opacity:1;stop-color:#b6726b"
         offset="1"
         id="stop8436-3" /></radialGradient><clipPath
       clipPathUnits="userSpaceOnUse"
       id="clipPath8436-7"><path
         d="m 30580.8,19494.3 h 2.8 c -5.5,-17.5 -10.4,-36.8 -14.9,-56.6 -29.8,-67.6 -76.6,-118.3 -139.7,-151.7 -84,-44.6 -196.6,-55.3 -311.8,-31.7 -24.5,4.9 -49.4,11.5 -74,19.8 -51.1,17 -96.6,49 -136.6,89.1 -140.4,140.6 -212.6,379.7 -221.4,410.5 9.2,86.8 20,173.3 30.7,258.8 11,88.1 22.3,179.3 31.9,269.5 9.3,102.3 35.5,202.7 69.3,295.6 12.8,10.4 96.1,72.3 226.3,51.3 30.4,-4.9 64.9,-14.7 103.1,-32.1 v -0.2 c 116.8,-53 267.1,-177.6 434.5,-451.1 z"
         transform="translate(0,-2.5e-4)"
         id="path8436-2-2" /></clipPath></defs><sodipodi:namedview
     id="namedview1"
     pagecolor="#505050"
     bordercolor="#eeeeee"
     borderopacity="1"
     inkscape:showpageshadow="0"
     inkscape:pageopacity="0"
     inkscape:pagecheckerboard="0"
     inkscape:deskcolor="#505050"
     inkscape:zoom="0.87224997"
     inkscape:cx="10302.093"
     inkscape:cy="2463.17"
     inkscape:window-width="3440"
     inkscape:window-height="1371"
     inkscape:window-x="0"
     inkscape:window-y="0"
     inkscape:window-maximized="1"
     inkscape:current-layer="layer2"
     showgrid="false"><inkscape:grid
       id="grid9149"
       units="px"
       originx="-12157.284"
       originy="-2486.8175"
       spacingx="1"
       spacingy="1"
       empcolor="#0099e5"
       empopacity="0.30196078"
       color="#0099e5"
       opacity="0.14901961"
       empspacing="5"
       enabled="true"
       visible="false" /></sodipodi:namedview><g
     inkscape:groupmode="layer"
     id="layer8"
     inkscape:label="5"
     style="display:inline"
     transform="translate(-12157.284,-2486.8176)"><g
       id="g9134"
       inkscape:label="woman-back"
       transform="translate(558.18533,5926.2768)"
       style="display:inline"><g
         id="g9143"
         transform="translate(1034.6205,-79.229722)"
         inkscape:label="glutes"><path
           id="path8406-9-4"
           d="m 30656.3,19494.3 0.2,669.2 c 164.4,278.2 313.3,412.4 431.4,473.9 47.1,24.5 89.3,37.6 125.6,43.6 114.5,19.1 194.2,-26.4 220.6,-44.5 0,-0.2 0,-0.2 0.2,-0.2 57.4,-159.5 92.3,-326.8 116.1,-541.7 8.7,-112.2 17.2,-227.5 24,-342.4 l -4.6,1.1 c -0.7,-3.4 -80.2,-290.7 -245,-435.1 -34.1,-30 -72.1,-53.8 -113.8,-67.7 -58.5,-19.5 -117.8,-30 -174.4,-31.7 -78.7,-2.5 -152.1,12.2 -211.4,43.6 -67.9,36 -117.2,92.3 -146.6,167.8 -3.4,10.3 -7,20.9 -10.8,31.5 -0.2,0.7 -0.6,1.5 -0.8,2.4 -0.3,1.6 -0.9,3.3 -1.3,4.8 h -0.4 c -3,8.5 -6,17.1 -9.4,25.4 h 0.4"
           style="fill:url(#radialGradient8409-9);fill-opacity:1;fill-rule:nonzero;stroke:none"
           transform="matrix(0.13333333,0,0,-0.13333333,6606.4516,-602.15056)"
           clip-path="url(#clipPath8409-9)" /><path
           id="path8433-3-3"
           d="m 30580.8,19494.3 h 2.8 c -5.5,-17.5 -10.4,-36.8 -14.9,-56.6 -29.8,-67.6 -76.6,-118.3 -139.7,-151.7 -84,-44.6 -196.6,-55.3 -311.8,-31.7 -24.5,4.9 -49.4,11.5 -74,19.8 -51.1,17 -96.6,49 -136.6,89.1 -140.4,140.6 -212.6,379.7 -221.4,410.5 9.2,86.8 20,173.3 30.7,258.8 11,88.1 22.3,179.3 31.9,269.5 9.3,102.3 35.5,202.7 69.3,295.6 12.8,10.4 96.1,72.3 226.3,51.3 30.4,-4.9 64.9,-14.7 103.1,-32.1 v -0.2 c 116.8,-53 267.1,-177.6 434.5,-451.1 l -0.2,-671.2"
           style="fill:url(#radialGradient8436-9);fill-opacity:1;fill-rule:nonzero;stroke:none"
           transform="matrix(0.13333333,0,0,-0.13333333,6606.4516,-602.15056)"
           clip-path="url(#clipPath8436-7)" /></g></g></g></svg>
