<?xml version="1.0" encoding="UTF-8" standalone="no"?>
<!-- Created with Inkscape (http://www.inkscape.org/) -->

<svg
   version="1.1"
   id="svg1"
   width="50.741913"
   height="68.070541"
   viewBox="0 0 50.741913 68.070541"
   sodipodi:docname="body_muscles.eps"
   inkscape:export-filename="../4af4f3ac/body.svg"
   inkscape:export-xdpi="96"
   inkscape:export-ydpi="96"
   inkscape:export-batch-path="../9c303ffd/woman"
   inkscape:export-batch-name="woman_back"
   xml:space="preserve"
   inkscape:version="1.4.2 (2aeb623e1d, 2025-05-12)"
   inkscape:dataloss="true"
   xmlns:inkscape="http://www.inkscape.org/namespaces/inkscape"
   xmlns:sodipodi="http://sodipodi.sourceforge.net/DTD/sodipodi-0.dtd"
   xmlns="http://www.w3.org/2000/svg"
   xmlns:svg="http://www.w3.org/2000/svg"><defs
     id="defs1" /><sodipodi:namedview
     id="namedview1"
     pagecolor="#505050"
     bordercolor="#eeeeee"
     borderopacity="1"
     inkscape:showpageshadow="0"
     inkscape:pageopacity="0"
     inkscape:pagecheckerboard="0"
     inkscape:deskcolor="#505050"
     inkscape:zoom="0.87224997"
     inkscape:cx="10302.093"
     inkscape:cy="2463.17"
     inkscape:window-width="3440"
     inkscape:window-height="1371"
     inkscape:window-x="0"
     inkscape:window-y="0"
     inkscape:window-maximized="1"
     inkscape:current-layer="layer2"
     showgrid="false"><inkscape:grid
       id="grid9149"
       units="px"
       originx="-12147.641"
       originy="-3194.3233"
       spacingx="1"
       spacingy="1"
       empcolor="#0099e5"
       empopacity="0.30196078"
       color="#0099e5"
       opacity="0.14901961"
       empspacing="5"
       enabled="true"
       visible="false" /></sodipodi:namedview><g
     inkscape:groupmode="layer"
     id="layer8"
     inkscape:label="5"
     style="display:inline"
     transform="translate(-12147.641,-3194.3233)"><g
       id="g9134"
       inkscape:label="woman-back"
       transform="translate(558.18533,5926.2768)"
       style="display:inline"><path
         id="path8596-2-3"
         d="m 11590.819,-2727.5935 c 0.227,-1.3334 0.48,-2.5867 0.973,-3.6267 0.134,-0.2533 0.254,-0.5067 0.414,-0.7333 1.56,13.72 5.707,35.6133 16.707,38.44 0.825,0.2 1.665,0.32 2.52,0.32 6.493,0 13.613,-6.2134 21.72,-18.8667 0.72,0.9733 1.532,1.9333 2.306,2.84 2.214,2.5867 4.307,5.0267 4.68,7.7733 0.387,2.6667 -1.173,5.5334 -3.626,6.6667 -0.374,0.1733 -0.774,0.3333 -1.174,0.48 -1.334,0.5067 -3,1.1333 -4.213,2.6 -2.228,2.76 -1.347,6.24 -0.693,8.7467 0.12,0.5066 0.253,0.9866 0.346,1.44 1.187,5.56 -2.32,12 -8.106,15.0266 -5.201,2.6934 -11.427,2.7467 -16.255,2.52 -6.665,-0.3333 -10.799,-1.8133 -13.04,-4.7066 -2.132,-2.7734 -2.466,-7 -2.719,-10.4 l -1.027,-13.4934 c -0.2,-2.64 -0.426,-5.6533 0.533,-8.0533 0.174,-0.48 0.427,-0.9467 0.654,-1.4533 0.734,-1.44 1.559,-3.0667 1.506,-5.1067 -0.03,-1.6667 -0.627,-3.0533 -1.16,-4.28 -0.119,-0.3067 -0.253,-0.5867 -0.373,-0.8533 -1.734,-4.36 -1.054,-9.2934 0.03,-15.28"
         style="display:inline;fill:#ffffff;fill-opacity:1;fill-rule:nonzero;stroke:none;stroke-width:0.133333" /></g></g></svg>
