<?xml version="1.0" encoding="UTF-8" standalone="no"?>
<!-- Created with Inkscape (http://www.inkscape.org/) -->

<svg
   version="1.1"
   id="svg1"
   width="72.461334"
   height="169.83253"
   viewBox="0 0 72.461334 169.83253"
   sodipodi:docname="body_muscles.eps"
   inkscape:export-filename="../4af4f3ac/body.svg"
   inkscape:export-xdpi="96"
   inkscape:export-ydpi="96"
   inkscape:export-batch-path="../39c23789/man"
   inkscape:export-batch-name="man_back"
   xml:space="preserve"
   inkscape:version="1.4.2 (2aeb623e1d, 2025-05-12)"
   inkscape:dataloss="true"
   xmlns:inkscape="http://www.inkscape.org/namespaces/inkscape"
   xmlns:sodipodi="http://sodipodi.sourceforge.net/DTD/sodipodi-0.dtd"
   xmlns="http://www.w3.org/2000/svg"
   xmlns:svg="http://www.w3.org/2000/svg"><defs
     id="defs1"><radialGradient
       fx="0"
       fy="0"
       cx="0"
       cy="0"
       r="1"
       gradientUnits="userSpaceOnUse"
       gradientTransform="matrix(489.616,0,0,-489.616,5821.68,3636.7)"
       spreadMethod="pad"
       id="radialGradient7767-7-4"><stop
         style="stop-opacity:1;stop-color:#e2a4a1"
         offset="0"
         id="stop7764-3-4" /><stop
         style="stop-opacity:1;stop-color:#e2a4a1"
         offset="0.011236"
         id="stop7765-6-8" /><stop
         style="stop-opacity:1;stop-color:#dc8e8f"
         offset="0.5"
         id="stop7766-0-2" /><stop
         style="stop-opacity:1;stop-color:#b6726b"
         offset="1"
         id="stop7767-2-4" /></radialGradient><clipPath
       clipPathUnits="userSpaceOnUse"
       id="clipPath7767-6-2"><path
         d="m 6093.41,4078.9 -148.98,-836.7 10.04,-82.8 c 2.46,-20.3 8.61,-39.1 17.83,-55.3 -48.16,-71.6 -97.34,-106.8 -147.75,-104.1 -79.52,3.7 -142.63,101 -161.28,133 12.5,81.9 7.38,134.4 5.94,145.3 3.69,103.4 -1.43,215.9 -15.37,334.4 -9.83,85.2 -30.32,169.3 -60.66,249.8 -17.41,46.1 -31.55,93.7 -43.23,142.2 61.89,22.8 228.49,98.8 278.49,268.9 47.34,-64.4 150.42,-184.4 264.97,-194.7 z"
         transform="translate(0,-2.5e-4)"
         id="path7767-9-7" /></clipPath></defs><sodipodi:namedview
     id="namedview1"
     pagecolor="#505050"
     bordercolor="#eeeeee"
     borderopacity="1"
     inkscape:showpageshadow="0"
     inkscape:pageopacity="0"
     inkscape:pagecheckerboard="0"
     inkscape:deskcolor="#505050"
     inkscape:zoom="0.87224997"
     inkscape:cx="10302.093"
     inkscape:cy="2463.17"
     inkscape:window-width="3440"
     inkscape:window-height="1371"
     inkscape:window-x="0"
     inkscape:window-y="0"
     inkscape:window-maximized="1"
     inkscape:current-layer="layer2"
     showgrid="false"><inkscape:grid
       id="grid9149"
       units="px"
       originx="-5450.8327"
       originy="-4220.0556"
       spacingx="1"
       spacingy="1"
       empcolor="#0099e5"
       empopacity="0.30196078"
       color="#0099e5"
       opacity="0.14901961"
       empspacing="5"
       enabled="true"
       visible="false" /></sodipodi:namedview><g
     inkscape:groupmode="layer"
     id="layer9"
     inkscape:label="man"
     transform="translate(-5450.8327,-4220.0557)"><g
       inkscape:groupmode="layer"
       id="layer2"
       inkscape:label="man_back"
       style="display:inline"><path
         id="path7764-8"
         d="m 6093.41,4078.9 -148.98,-836.7 10.04,-82.8 c 2.46,-20.3 8.61,-39.1 17.83,-55.3 -48.16,-71.6 -97.34,-106.8 -147.75,-104.1 -79.52,3.7 -142.63,101 -161.28,133 12.5,81.9 7.38,134.4 5.94,145.3 3.69,103.4 -1.43,215.9 -15.37,334.4 -9.83,85.2 -30.32,169.3 -60.66,249.8 -17.41,46.1 -31.55,93.7 -43.23,142.2 61.89,22.8 228.49,98.8 278.49,268.9 47.34,-64.4 150.42,-184.4 264.97,-194.7"
         style="fill:url(#radialGradient7767-7-4);fill-opacity:1;fill-rule:nonzero;stroke:none"
         transform="matrix(0.13333333,0,0,-0.13333333,4710.8394,4789.869)"
         clip-path="url(#clipPath7767-6-2)" /></g></g></svg>
