<?xml version="1.0" encoding="UTF-8" standalone="no"?>
<!-- Created with Inkscape (http://www.inkscape.org/) -->

<svg
   version="1.1"
   id="svg1"
   width="40.624435"
   height="77.466629"
   viewBox="0 0 40.624435 77.466629"
   sodipodi:docname="body_muscles.eps"
   inkscape:export-filename="../4af4f3ac/body.svg"
   inkscape:export-xdpi="96"
   inkscape:export-ydpi="96"
   inkscape:export-batch-path="../39c23789/man"
   inkscape:export-batch-name="man_back"
   xml:space="preserve"
   inkscape:version="1.4.2 (2aeb623e1d, 2025-05-12)"
   inkscape:dataloss="true"
   xmlns:inkscape="http://www.inkscape.org/namespaces/inkscape"
   xmlns:sodipodi="http://sodipodi.sourceforge.net/DTD/sodipodi-0.dtd"
   xmlns="http://www.w3.org/2000/svg"
   xmlns:svg="http://www.w3.org/2000/svg"><defs
     id="defs1"><radialGradient
       fx="0"
       fy="0"
       cx="0"
       cy="0"
       r="1"
       gradientUnits="userSpaceOnUse"
       gradientTransform="matrix(231.934,0,0,-231.934,5831.18,9195.4)"
       spreadMethod="pad"
       id="radialGradient7790-4-0"><stop
         style="stop-opacity:1;stop-color:#e2a4a1"
         offset="0"
         id="stop7787-0-8" /><stop
         style="stop-opacity:1;stop-color:#e2a4a1"
         offset="0.011236"
         id="stop7788-0-0" /><stop
         style="stop-opacity:1;stop-color:#dc8e8f"
         offset="0.5"
         id="stop7789-6-5" /><stop
         style="stop-opacity:1;stop-color:#b6726b"
         offset="1"
         id="stop7790-8-9" /></radialGradient><clipPath
       clipPathUnits="userSpaceOnUse"
       id="clipPath7790-5-0"><path
         d="m 5977.63,9089.1 c 8.6,-59.6 5.94,-117.2 3.48,-172.9 -0.21,-3.7 -0.41,-7.4 -0.41,-11.3 -102.67,166.8 -240.58,232 -301.86,253.9 9.84,12.7 20.09,25.6 30.33,38.7 69.68,87.5 147.75,183.4 235.67,288.4 0,-0.5 0,-0.9 0,-1.3 l 5.94,-242.6 0.21,-2.3 c 6.76,-50.6 15.77,-101.8 26.64,-150.6 z"
         transform="translate(0,-2.5e-4)"
         id="path7790-4-9" /></clipPath></defs><sodipodi:namedview
     id="namedview1"
     pagecolor="#505050"
     bordercolor="#eeeeee"
     borderopacity="1"
     inkscape:showpageshadow="0"
     inkscape:pageopacity="0"
     inkscape:pagecheckerboard="0"
     inkscape:deskcolor="#505050"
     inkscape:zoom="0.87224997"
     inkscape:cx="10302.093"
     inkscape:cy="2463.17"
     inkscape:window-width="3440"
     inkscape:window-height="1371"
     inkscape:window-x="0"
     inkscape:window-y="0"
     inkscape:window-maximized="1"
     inkscape:current-layer="layer2"
     showgrid="false"><inkscape:grid
       id="grid9149"
       units="px"
       originx="-5468.0181"
       originy="-3525.0824"
       spacingx="1"
       spacingy="1"
       empcolor="#0099e5"
       empopacity="0.30196078"
       color="#0099e5"
       opacity="0.14901961"
       empspacing="5"
       enabled="true"
       visible="false" /></sodipodi:namedview><g
     inkscape:groupmode="layer"
     id="layer9"
     inkscape:label="man"
     transform="translate(-5468.018,-3525.0824)"><g
       inkscape:groupmode="layer"
       id="layer2"
       inkscape:label="man_back"
       style="display:inline"><path
         id="path7787-0"
         d="m 5977.63,9089.1 c 8.6,-59.6 5.94,-117.2 3.48,-172.9 -0.21,-3.7 -0.41,-7.4 -0.41,-11.3 -102.67,166.8 -240.58,232 -301.86,253.9 9.84,12.7 20.09,25.6 30.33,38.7 69.68,87.5 147.75,183.4 235.67,288.4 0,-0.5 0,-0.9 0,-1.3 l 5.94,-242.6 0.21,-2.3 c 6.76,-50.6 15.77,-101.8 26.64,-150.6"
         style="fill:url(#radialGradient7790-4-0);fill-opacity:1;fill-rule:nonzero;stroke:none"
         transform="matrix(0.13333333,0,0,-0.13333333,4710.8394,4789.869)"
         clip-path="url(#clipPath7790-5-0)" /></g></g></svg>
